<svg width="100" height="100" viewBox="0 0 100 100" fill="none" xmlns="http://www.w3.org/2000/svg">
  <!-- Round Background -->
  <circle cx="50" cy="50" r="50" fill="#B56A3A" />

  <!-- Lotus Group scaled UP to 0.9 and re-centered -->
  <!-- Center of unscaled lotus is approx (50, 42.5). Target (50, 50). 
       Tx = 50 - 50*0.9 = 5
       Ty = 50 - 42.5*0.9 = 11.75 -> ~12
  -->
  <g transform="translate(5, 12) scale(0.9)">
      <style>
        path {
          stroke: #F6F4EF; /* Cream/White for contrast on orange */
        }
      </style>
      
      <!-- Center Petal -->
      <path d="M50 75 C50 75 35 40 50 10 C65 40 50 75 50 75Z" stroke-width="6" stroke-linecap="round" stroke-linejoin="round" fill="currentColor" style="color: #F6F4EF; fill: #B56A3A; stroke: #F6F4EF;"/>
      
      <!-- Inner Left Petal -->
      <path d="M45 75 C40 75 25 55 35 25 C42 40 48 60 50 70" stroke-width="6" stroke-linecap="round" stroke-linejoin="round"/>

      <!-- Inner Right Petal -->
      <path d="M55 75 C60 75 75 55 65 25 C58 40 52 60 50 70" stroke-width="6" stroke-linecap="round" stroke-linejoin="round"/>

      <!-- Outer Left Petal -->
      <path d="M35 75 C25 75 5 55 15 35 C25 45 35 60 40 70" stroke-width="6" stroke-linecap="round" stroke-linejoin="round"/>

      <!-- Outer Right Petal -->
      <path d="M65 75 C75 75 95 55 85 35 C75 45 65 60 60 70" stroke-width="6" stroke-linecap="round" stroke-linejoin="round"/>
  </g>
</svg>
